<svg width="3323" height="3531" viewBox="0 0 3323 3531" fill="none" xmlns="http://www.w3.org/2000/svg">
<path d="M1510.74 3344.74C1064.52 3709.01 1558.87 3703.68 1031.76 1743.9C998.559 1628.35 796.633 1330.61 560.443 1170.47C267.622 971.947 -61.1563 916.129 11.1131 867.988C58.5796 836.369 622.621 747.389 930.43 1084.58C1099.39 1269.67 1258.16 1495.04 1352.52 1743.9C1536.52 2229.21 1675.52 1880.95 1729.32 1452.73C1762.76 1186.63 1726.5 874.619 1759.55 758.283C1795.92 630.205 2183.56 1346.22 2534.65 1545.39C2706.48 1642.87 2706.53 1283.9 2613.76 867.988L2380.31 376.189C2237 157.305 2103.51 1 2202.21 1C2310.79 1 3008.23 409.691 3003.98 1189.65C3000.48 1831.61 2738.82 3026.75 2671.75 2979.01C2582.24 2915.29 2576.04 2537.31 2483.31 2211.07C2362.21 1841.49 2420.69 1873.03 2233.32 1650.83C2036.7 1465.1 1899.31 1265.27 1899.31 1265.27C1899.31 1265.27 1956.96 2980.48 1510.74 3344.74Z" fill="url(#paint0_linear_93_6)"/>
<path d="M2202.21 1C2310.79 1 3008.23 409.691 3003.98 1189.65C3000.48 1831.61 2738.82 3026.75 2671.75 2979.01C2582.24 2915.29 2576.04 2537.31 2483.31 2211.07C2362.21 1841.49 2420.69 1873.03 2233.32 1650.83C2036.7 1465.1 1899.31 1265.27 1899.31 1265.27C1899.31 1265.27 1956.96 2980.48 1510.74 3344.74C1064.52 3709.01 1558.87 3703.68 1031.76 1743.9C998.559 1628.35 796.633 1330.61 560.442 1170.47M2202.21 1C2037.91 1 2516.98 434.089 2613.76 867.988M2202.21 1L2613.76 867.988M11.1131 867.988C58.5796 836.369 622.621 747.389 930.43 1084.58C1099.39 1269.67 1258.16 1495.04 1352.52 1743.9C1536.52 2229.21 1675.52 1880.95 1729.32 1452.73C1762.76 1186.63 1726.5 874.619 1759.55 758.283C1795.92 630.205 2183.56 1346.22 2534.65 1545.39C2706.48 1642.87 2706.53 1283.9 2613.76 867.988M11.1131 867.988C-61.1563 916.129 267.622 971.947 560.442 1170.47M11.1131 867.988C114.223 924.987 393.333 962.801 560.442 1170.47" stroke="url(#paint1_linear_93_6)"/>
<mask id="mask0_93_6" style="mask-type:alpha" maskUnits="userSpaceOnUse" x="640" y="259" width="2683" height="2684">
<circle cx="1981.58" cy="1601.36" r="1341.42" fill="#D9D9D9"/>
</mask>
<g mask="url(#mask0_93_6)">
<circle cx="1981.5" cy="1601.5" r="1341.5" fill="url(#paint2_linear_93_6)"/>
<path d="M1510.74 3344.74C1064.52 3709.01 1558.87 3703.68 1031.76 1743.9C998.559 1628.35 796.633 1330.61 560.443 1170.47C267.622 971.947 -61.1563 916.129 11.1131 867.988C58.5796 836.369 622.621 747.389 930.43 1084.58C1099.39 1269.67 1258.16 1495.04 1352.52 1743.9C1536.52 2229.21 1675.52 1880.95 1729.32 1452.73C1762.76 1186.63 1726.5 874.619 1759.55 758.283C1795.92 630.205 2183.56 1346.22 2534.65 1545.39C2706.48 1642.87 2706.53 1283.9 2613.76 867.988L2380.31 376.189C2237 157.305 2103.51 1 2202.21 1C2310.79 1 3008.23 409.691 3003.98 1189.65C3000.48 1831.61 2738.82 3026.75 2671.75 2979.01C2582.24 2915.29 2576.04 2537.31 2483.31 2211.07C2362.21 1841.49 2420.69 1873.03 2233.32 1650.83C2036.7 1465.1 1899.31 1265.27 1899.31 1265.27C1899.31 1265.27 1956.96 2980.48 1510.74 3344.74Z" fill="white"/>
<path d="M2202.21 1C2310.79 1 3008.23 409.691 3003.98 1189.65C3000.48 1831.61 2738.82 3026.75 2671.75 2979.01C2582.24 2915.29 2576.04 2537.31 2483.31 2211.07C2362.21 1841.49 2420.69 1873.03 2233.32 1650.83C2036.7 1465.1 1899.31 1265.27 1899.31 1265.27C1899.31 1265.27 1956.96 2980.48 1510.74 3344.74C1064.52 3709.01 1558.87 3703.68 1031.76 1743.9C998.559 1628.35 796.633 1330.61 560.442 1170.47M2202.21 1C2037.91 1 2516.98 434.089 2613.76 867.988M2202.21 1L2613.76 867.988M11.1131 867.988C58.5796 836.369 622.621 747.389 930.43 1084.58C1099.39 1269.67 1258.16 1495.04 1352.52 1743.9C1536.52 2229.21 1675.52 1880.95 1729.32 1452.73C1762.76 1186.63 1726.5 874.619 1759.55 758.283C1795.92 630.205 2183.56 1346.22 2534.65 1545.39C2706.48 1642.87 2706.53 1283.9 2613.76 867.988M11.1131 867.988C-61.1563 916.129 267.622 971.947 560.442 1170.47M11.1131 867.988C114.223 924.987 393.333 962.801 560.442 1170.47" stroke="url(#paint3_linear_93_6)"/>
</g>
<defs>
<linearGradient id="paint0_linear_93_6" x1="1502.5" y1="1" x2="1502.5" y2="3530" gradientUnits="userSpaceOnUse">
<stop stop-color="#865100"/>
<stop offset="1" stop-color="#2A1B04"/>
</linearGradient>
<linearGradient id="paint1_linear_93_6" x1="1502.5" y1="1" x2="1502.5" y2="3530" gradientUnits="userSpaceOnUse">
<stop stop-color="#865100"/>
<stop offset="1" stop-color="#2A1B04"/>
</linearGradient>
<linearGradient id="paint2_linear_93_6" x1="1981.5" y1="260" x2="1981.5" y2="2943" gradientUnits="userSpaceOnUse">
<stop stop-color="#865100"/>
<stop offset="1" stop-color="#2A1B04"/>
</linearGradient>
<linearGradient id="paint3_linear_93_6" x1="1502.5" y1="1" x2="1502.5" y2="3530" gradientUnits="userSpaceOnUse">
<stop stop-color="#865100"/>
<stop offset="1" stop-color="#2A1B04"/>
</linearGradient>
</defs>
</svg>
